<?xml version="1.0" standalone="no"?>
<!DOCTYPE svg PUBLIC "-//W3C//DTD SVG 20010904//EN"
 "http://www.w3.org/TR/2001/REC-SVG-20010904/DTD/svg10.dtd">
<svg version="1.0" xmlns="http://www.w3.org/2000/svg"
 width="600.000000pt" height="600.000000pt" viewBox="0 0 600.000000 600.000000"
 preserveAspectRatio="xMidYMid meet">

<g transform="translate(0.000000,600.000000) scale(0.100000,-0.100000)"
fill="#000000" stroke="none">
<path d="M2880 5393 c-354 -36 -716 -156 -1005 -333 -429 -263 -770 -661 -961
-1124 -18 -44 -39 -81 -47 -82 -37 -5 -59 -18 -81 -47 -41 -55 -40 -124 3
-172 16 -19 16 -25 3 -85 -13 -55 -16 -62 -26 -46 -44 75 -76 114 -108 131
-48 25 -72 13 -76 -38 -6 -66 59 -154 144 -195 l35 -16 -7 -60 c-4 -34 -10
-72 -14 -86 -6 -25 -7 -24 -33 17 -33 52 -63 73 -102 73 -119 0 -32 -173 105
-210 23 -6 24 -10 27 -98 1 -51 -1 -92 -6 -92 -4 0 -18 11 -30 24 -55 59 -131
57 -131 -3 0 -51 99 -141 154 -141 20 0 22 -6 30 -73 l7 -57 -47 25 c-60 32
-119 34 -134 4 -34 -63 67 -162 165 -162 l41 0 26 -106 c14 -58 29 -114 33
-124 6 -14 -2 -12 -40 12 -27 17 -63 36 -82 42 -107 35 -123 -71 -21 -139 34
-22 54 -27 112 -29 l71 -2 27 -63 c34 -79 35 -93 7 -77 -62 33 -138 27 -159
-11 -36 -67 105 -138 212 -108 24 7 29 4 61 -55 19 -34 45 -80 58 -101 l23
-39 -45 26 c-52 31 -104 35 -137 11 -31 -21 -26 -61 11 -88 24 -18 43 -21 123
-21 l95 0 29 -35 c42 -50 39 -60 -17 -60 -61 0 -117 -27 -121 -58 -5 -32 32
-70 78 -82 42 -11 131 2 165 24 19 13 26 8 108 -77 48 -50 87 -92 87 -93 0 -1
-33 -1 -74 -1 -91 0 -126 -17 -126 -64 0 -25 6 -32 37 -45 59 -25 144 -21 205
9 l52 26 49 -42 50 -42 -78 -10 c-65 -9 -81 -15 -101 -39 -31 -35 -30 -50 4
-76 23 -19 36 -21 83 -17 61 5 100 22 142 62 l27 26 80 -48 c82 -50 95 -63 59
-63 -34 0 -85 -29 -98 -56 -37 -81 98 -97 192 -22 l39 31 49 -23 c27 -13 49
-26 49 -29 0 -4 -16 -15 -36 -26 -107 -58 -110 -145 -5 -145 54 0 126 40 161
90 l20 28 83 -28 c45 -16 102 -34 126 -40 l45 -12 -74 -36 c-89 -44 -129 -92
-106 -126 42 -64 194 1 247 106 14 28 25 38 36 34 8 -3 46 -11 84 -18 38 -6
69 -14 69 -19 0 -4 -13 -21 -29 -37 -36 -36 -64 -122 -51 -158 19 -50 39 -43
117 42 41 43 84 93 96 111 l22 32 170 0 c275 0 481 34 750 122 349 115 669
314 932 580 189 192 326 385 443 624 233 475 298 1006 189 1540 -67 325 -246
705 -457 970 -74 93 -249 271 -344 352 -335 280 -781 474 -1219 528 -112 14
-418 19 -519 8z m387 -13 c547 -43 1046 -260 1447 -632 383 -354 649 -875 721
-1413 19 -142 22 -438 5 -570 -46 -366 -176 -725 -368 -1015 -396 -598 -1001
-968 -1727 -1054 -169 -21 -540 -9 -557 17 -4 6 -8 24 -8 38 0 34 -44 118 -76
147 -21 18 -29 20 -40 11 -17 -14 -19 -102 -3 -148 6 -18 10 -34 8 -36 -2 -2
-60 11 -128 28 l-124 32 -13 44 c-25 84 -106 181 -152 181 -48 0 -58 -75 -17
-130 14 -18 23 -35 21 -37 -1 -2 -44 15 -93 38 l-90 41 4 42 c6 49 -21 162
-44 188 -23 25 -60 23 -78 -5 -17 -27 -12 -67 16 -134 10 -24 16 -43 13 -43
-4 0 -42 21 -85 47 -58 34 -78 51 -74 63 16 40 27 116 22 148 -11 67 -69 96
-101 50 -21 -29 -20 -107 0 -136 9 -13 14 -25 12 -28 -8 -7 -167 118 -252 197
l-78 74 16 54 c19 65 21 166 3 201 -9 18 -21 25 -41 25 -38 0 -67 -39 -73 -98
l-5 -46 -58 57 c-31 31 -65 69 -74 83 -15 24 -15 27 4 44 21 19 46 86 56 151
8 54 -8 84 -45 84 -46 0 -62 -27 -76 -124 -3 -22 -7 -42 -9 -44 -2 -2 -22 27
-44 63 l-40 67 39 55 c63 91 63 183 0 183 -33 0 -53 -20 -79 -79 l-18 -44 -37
85 c-20 48 -52 132 -71 189 l-35 102 44 49 c101 112 101 278 0 224 -17 -10
-40 -32 -51 -49 l-19 -32 -3 30 c-2 17 -10 37 -17 45 -8 8 -17 39 -21 68 l-7
52 29 0 c40 0 127 63 164 118 36 54 35 71 -3 92 -24 13 -30 13 -54 0 -25 -14
-42 -33 -109 -126 -12 -16 -24 -27 -27 -24 -3 3 -9 51 -13 106 l-7 100 44 13
c95 29 159 78 159 124 0 25 -27 46 -61 47 -24 0 -99 -45 -114 -69 -13 -22 -21
-10 -18 27 11 119 27 238 44 320 11 51 19 98 16 105 -2 7 18 25 45 40 85 49
112 126 63 177 l-26 27 36 82 c127 298 284 530 510 757 200 201 384 332 640
455 277 133 558 209 835 225 58 4 107 8 109 10 7 7 111 4 238 -6z m-2350
-1577 c13 -19 13 -28 3 -52 -6 -16 -19 -36 -28 -44 -29 -26 -93 -58 -103 -52
-5 4 -9 27 -9 53 0 47 17 83 50 109 24 19 70 12 87 -14z m-212 -253 c32 -48
62 -126 52 -136 -3 -4 -28 9 -54 28 -49 35 -110 128 -98 149 4 5 21 9 38 7 25
-2 39 -13 62 -48z m-57 -260 c31 -19 82 -104 82 -137 0 -33 -72 -1 -118 51
-41 47 -49 76 -26 93 23 17 23 17 62 -7z m257 -96 c27 -20 12 -41 -51 -76 -79
-44 -108 -32 -62 27 19 24 75 65 88 65 3 -1 14 -7 25 -16z m-232 -253 c36 -32
75 -96 65 -107 -11 -11 -112 50 -127 77 -16 29 -9 59 13 59 9 0 30 -13 49 -29z
m273 4 c8 -20 -27 -66 -76 -100 -47 -33 -60 -27 -38 18 37 77 99 122 114 82z
m-241 -266 c51 -24 75 -52 75 -88 0 -22 -3 -23 -36 -18 -50 8 -104 38 -127 69
-41 56 6 75 88 37z m219 -91 c0 -38 -8 -59 -38 -103 -21 -30 -42 -55 -47 -55
-14 0 -10 90 5 133 17 47 45 79 65 75 12 -3 16 -16 15 -50z m-163 -267 c51
-33 99 -78 99 -91 0 -6 -12 -10 -27 -10 -50 0 -104 21 -139 53 -33 31 -34 33
-19 55 21 29 32 28 86 -7z m337 -243 c4 -36 -58 -151 -73 -136 -18 17 -16 79
4 122 17 39 25 47 43 44 16 -2 24 -11 26 -30z m-195 -34 c41 -21 77 -54 77
-70 0 -19 -61 -27 -107 -15 -76 21 -109 66 -69 93 19 13 65 9 99 -8z m320
-191 c-1 -23 -11 -64 -23 -90 -19 -42 -23 -45 -30 -28 -12 28 -12 84 1 128 8
31 14 38 32 35 19 -3 22 -9 20 -45z m-152 -104 c58 -25 63 -45 14 -55 -71 -13
-154 21 -140 59 10 24 64 22 126 -4z m355 -146 c3 -16 8 -36 10 -45 6 -22 -16
-137 -28 -144 -12 -8 -38 59 -45 115 -6 57 9 101 37 101 13 0 22 -9 26 -27z
m-155 -74 c28 -28 20 -41 -32 -57 -53 -16 -114 -10 -140 14 -42 38 -8 62 89
63 50 1 66 -3 83 -20z m228 -271 c28 -6 51 -17 51 -24 0 -22 -85 -47 -145 -42
-63 5 -77 14 -69 45 9 34 73 42 163 21z m317 -14 c8 -33 -7 -136 -21 -141 -29
-9 -59 123 -35 152 20 24 49 18 56 -11z m213 -140 c16 -36 27 -144 14 -144
-23 0 -80 127 -70 155 10 24 43 18 56 -11z m-320 -19 l23 -12 -28 -20 c-53
-36 -127 -53 -168 -37 -19 7 -22 59 -4 70 38 24 129 23 177 -1z m603 -142 c30
-31 83 -132 74 -140 -9 -9 -100 54 -124 86 -12 17 -22 42 -22 56 0 35 38 34
72 -2z m-307 -3 c3 -5 -16 -24 -42 -40 -37 -24 -57 -30 -88 -28 -35 3 -40 6
-40 28 0 20 8 28 35 37 43 15 127 17 135 3z m708 -74 c14 -21 57 -135 57 -151
0 -3 -13 -5 -30 -5 -38 0 -58 36 -67 120 -5 50 -3 60 9 60 9 0 23 -11 31 -24z
m-480 -35 c13 -13 -12 -42 -71 -81 -50 -33 -93 -38 -113 -14 -18 21 -4 41 57
82 40 27 56 33 83 28 19 -3 39 -10 44 -15z m342 -130 c3 -5 -16 -31 -43 -58
-75 -75 -152 -90 -152 -29 0 31 99 83 182 95 4 1 9 -3 13 -8z m297 -79 c-17
-22 -50 -56 -72 -76 -33 -30 -44 -35 -56 -25 -19 16 -18 38 6 76 23 38 58 63
103 73 48 10 53 -4 19 -48z"/>
<path d="M2098 4935 c-104 -29 -225 -120 -303 -230 -85 -119 -109 -210 -81
-307 20 -71 51 -115 177 -256 118 -132 193 -227 187 -240 -1 -5 -48 -45 -103
-89 -191 -154 -421 -413 -538 -608 -81 -136 -115 -265 -86 -328 26 -58 142
-93 255 -77 229 31 479 199 621 416 73 112 94 176 100 300 7 121 -8 179 -73
303 -24 46 -44 87 -44 92 0 10 192 141 198 135 2 -2 -4 -38 -12 -80 -9 -41
-16 -103 -16 -136 0 -51 4 -65 25 -85 33 -34 84 -33 125 2 18 14 54 58 81 96
l49 70 0 -97 c0 -110 15 -156 56 -175 80 -36 130 20 249 281 36 78 69 146 73
150 5 5 32 -1 61 -13 38 -16 51 -27 47 -38 -2 -9 -21 -57 -40 -106 -111 -288
-140 -624 -60 -710 12 -13 35 -27 50 -31 37 -9 59 19 74 94 50 251 115 439
232 669 67 132 75 153 63 169 -12 17 -15 17 -41 -12 -72 -77 -223 -423 -281
-644 -14 -52 -28 -97 -30 -100 -12 -10 8 185 27 280 23 113 71 256 106 317 26
46 31 85 12 101 -7 6 -55 27 -105 47 -51 20 -93 41 -93 46 0 5 11 48 25 95 53
182 15 304 -93 304 -46 0 -94 -39 -126 -102 -66 -133 -37 -233 94 -320 l25
-16 -92 -184 c-51 -100 -102 -194 -114 -208 l-21 -25 7 77 c6 81 22 178 52
317 l18 83 -24 19 c-13 11 -31 18 -40 17 -9 -2 -36 -44 -61 -93 -51 -101 -117
-197 -181 -265 -57 -59 -58 -50 -15 165 36 186 35 205 -14 205 -26 0 -33 -6
-46 -40 -13 -33 -33 -50 -127 -111 -62 -40 -121 -78 -133 -86 -19 -12 -25 -8
-90 69 -38 45 -106 123 -152 173 -114 124 -137 164 -136 240 1 86 45 167 150
272 120 122 243 174 290 122 28 -31 22 -132 -12 -212 -34 -80 -36 -111 -8
-115 57 -8 140 221 115 315 -25 92 -129 132 -253 98z m940 -470 c18 -38 15
-112 -8 -201 -23 -91 -30 -100 -59 -84 -35 18 -61 70 -61 121 0 76 63 183 111
188 3 1 11 -10 17 -24z m-876 -692 c20 -43 42 -102 48 -132 16 -69 7 -182 -20
-255 -93 -246 -460 -526 -690 -526 -48 0 -64 4 -81 21 -86 86 137 477 425 744
117 109 256 224 272 224 6 1 27 -34 46 -76z"/>
<path d="M3271 3072 c-22 -18 -67 -181 -116 -424 -14 -67 -29 -126 -33 -130
-4 -4 -43 -20 -87 -36 -44 -16 -136 -53 -204 -81 -68 -29 -125 -50 -127 -48
-4 3 41 229 117 589 19 89 21 109 10 122 -25 30 -48 19 -65 -31 -27 -87 -95
-345 -141 -543 -26 -107 -49 -198 -53 -202 -4 -3 -83 -46 -177 -93 -93 -48
-176 -92 -182 -97 -19 -15 -16 -36 6 -47 14 -8 50 5 166 59 82 39 154 70 160
70 9 0 5 -35 -11 -122 -14 -68 -44 -245 -69 -393 -24 -149 -47 -278 -50 -286
-10 -28 43 -55 69 -36 16 13 59 207 141 642 25 132 51 246 58 252 7 7 55 31
107 54 52 22 141 60 197 85 57 24 107 44 113 44 6 0 8 -10 5 -22 -8 -36 -122
-712 -155 -921 -16 -103 -27 -194 -23 -202 13 -36 89 -29 98 8 18 81 94 510
145 821 33 204 62 371 63 373 10 9 178 71 210 77 47 9 48 31 3 53 -34 16 -37
15 -111 -12 -42 -15 -78 -25 -81 -22 -3 3 11 83 31 177 19 95 38 205 42 245 5
66 4 74 -15 84 -16 8 -25 7 -41 -7z"/>
<path d="M4649 2440 c-76 -40 -155 -159 -223 -336 -31 -81 -149 -458 -176
-563 -6 -23 -13 -41 -16 -39 -2 3 7 106 21 229 32 275 31 324 -8 353 -36 27
-51 17 -94 -60 l-33 -59 6 112 c5 81 3 120 -6 143 -16 39 -54 50 -80 24 -10
-11 -68 -109 -130 -219 -61 -110 -120 -211 -130 -225 l-20 -25 0 42 c0 23 11
118 25 210 31 202 30 224 -8 234 -26 7 -31 3 -57 -40 -31 -49 -107 -101 -149
-101 -18 0 -21 6 -21 36 0 52 -20 114 -41 125 -10 5 -33 9 -51 8 -18 0 -45 2
-60 6 -23 6 -30 2 -48 -26 -39 -65 -92 -248 -97 -341 -5 -74 -3 -92 16 -131
29 -59 76 -86 120 -67 18 7 43 27 56 45 29 37 67 136 85 218 13 55 15 57 54
68 23 6 56 19 74 30 32 18 33 18 28 1 -33 -103 -48 -336 -25 -386 17 -37 65
-54 98 -35 35 19 101 118 185 273 38 70 69 126 71 124 1 -2 -8 -77 -21 -167
-12 -91 -20 -177 -17 -193 7 -33 33 -51 71 -46 24 3 32 14 65 93 l38 90 -6
-60 c-3 -33 -12 -126 -20 -208 -11 -111 -12 -160 -4 -197 16 -77 65 -101 112
-57 25 22 48 89 130 381 l34 119 24 -49 c31 -62 80 -89 161 -89 49 1 64 6 113
39 31 22 81 69 111 105 82 97 202 357 177 382 -20 20 -42 -5 -77 -89 -50 -121
-101 -205 -169 -278 -89 -96 -179 -130 -211 -81 -23 34 -30 125 -16 205 11 70
13 73 54 97 62 36 162 145 191 207 45 97 45 156 0 176 -36 17 -64 14 -106 -8z
m40 -152 c-25 -50 -96 -138 -111 -138 -13 0 46 104 90 159 42 52 53 41 21 -21z
m-1202 -130 c-2 -13 -4 -5 -4 17 -1 22 1 32 4 23 2 -10 2 -28 0 -40z m-35 -55
c15 -15 28 -37 28 -49 0 -65 -81 -244 -111 -244 -18 0 -6 144 20 238 13 45 26
82 29 82 3 0 19 -12 34 -27z"/>
</g>
</svg>
